HIERARCHY
ROOT Hips
{
  OFFSET -22.0383 92.8187 14.2
  CHANNELS 6 Xposition Yposition Zposition Zrotation Xrotation Yrotation
  JOINT ToSpine
  {
    OFFSET -2.69724 7.43032 -0.144315
    CHANNELS 3 Zrotation Xrotation Yrotation
    JOINT Spine
    {
      OFFSET -0.0310711 10.7595 1.96963
      CHANNELS 3 Zrotation Xrotation Yrotation
      JOINT Spine1
      {
        OFFSET 13.1342 3.43533 0.764692
        CHANNELS 3 Zrotation Xrotation Yrotation
        JOINT Neck
        {
          OFFSET 29.8703 7.82586 -0.130764
          CHANNELS 3 Zrotation Xrotation Yrotation
          JOINT Head
          {
            OFFSET 9.52751 0.295786 -0.907742
            CHANNELS 3 Zrotation Xrotation Yrotation
            End Site
            {
              OFFSET 16.4037 0.713936 2.7358
            }
          }
        }
        JOINT LeftShoulder
        {
          OFFSET 27.5574 4.95586 2.47156
          CHANNELS 3 Zrotation Xrotation Yrotation
          JOINT LeftArm
          {
            OFFSET 1.20734 -0.998971 20.1238
            CHANNELS 3 Zrotation Xrotation Yrotation
            JOINT LeftForeArm
            {
              OFFSET 26.8049 -0.0536703 -0.155908
              CHANNELS 3 Zrotation Xrotation Yrotation
              JOINT LeftHand
              {
                OFFSET 26.6817 0 0.320147
                CHANNELS 3 Zrotation Xrotation Yrotation
                End Site
                {
                  OFFSET 18.6119 0 0.382219
                }
              }
            }
          }
        }
        JOINT RightShoulder
        {
          OFFSET 27.5927 4.71444 -2.65209
          CHANNELS 3 Zrotation Xrotation Yrotation
          JOINT RightArm
          {
            OFFSET 2.83739 -1.17114 -18.7564
            CHANNELS 3 Zrotation Xrotation Yrotation
            JOINT RightForeArm
            {
              OFFSET 28.839 -0.0548439 1.22491
              CHANNELS 3 Zrotation Xrotation Yrotation
              JOINT RightHand
              {
                OFFSET 26.5114 0 -0.101894
                CHANNELS 3 Zrotation Xrotation Yrotation
                End Site
                {
                  OFFSET 18.2168 0 0
                }
              }
            }
          }
        }
      }
    }
  }
  JOINT LeftUpLeg
  {
    OFFSET -4.76168 -1.9167 -10.2353
    CHANNELS 3 Zrotation Xrotation Yrotation
    JOINT LeftLeg
    {
      OFFSET 2.55951 -42.0585 -8.02213
      CHANNELS 3 Zrotation Xrotation Yrotation
      JOINT LeftFoot
      {
        OFFSET 3.16357 -42.5282 -3.95426
        CHANNELS 3 Zrotation Xrotation Yrotation
        JOINT LeftToeBase
        {
          OFFSET 0.346054 -6.02161 12.8035
          CHANNELS 3 Zrotation Xrotation Yrotation
          End Site
          {
            OFFSET 0.134235 -1.35082 5.13018
          }
        }
      }
    }
  }
  JOINT RightUpLeg
  {
    OFFSET -4.94151 -1.41743 10.6446
    CHANNELS 3 Zrotation Xrotation Yrotation
    JOINT RightLeg
    {
      OFFSET -2.56294 -42.0364 -7.94377
      CHANNELS 3 Zrotation Xrotation Yrotation
      JOINT RightFoot
      {
        OFFSET -3.0952 -42.555 -4.02241
        CHANNELS 3 Zrotation Xrotation Yrotation
        JOINT RightToeBase
        {
          OFFSET -0.0828122 -6.13587 12.8035
          CHANNELS 3 Zrotation Xrotation Yrotation
          End Site
          {
            OFFSET -0.131328 -1.35082 5.13018
          }
        }
      }
    }
  }
}
MOTION
Frames:	8
Frame Time:	0.0333333
-22.0383 92.8187 14.2 71.9743 -29.8608 -8.50752 -70.1915 0 88.8779 76.8533 72.9822 5.71897 4.48002 22.1272 3.33647 -123.527 33.377 157.58 175.479 76.6641 -146.763 0.682294 -14.462 -17.8531 -59.2706 28.4791 -152.735 11.7712 -0.446913 -91.378 0.420957 0.000575603 0.35866 -2.27962 7.17731 46.0308 -121.351 -8.4979 88.4099 16.4983 -4.15355 76.1336 0.58676 0.000330803 0.0646654 -48.4715 15.2517 97.1125 -2.65306 42.3426 -5.12681 -3.40077 -12.7978 -1.0523 3.03685 -8.36613 7.55631 -43.173 -15.2916 77.901 1.63329 35.0902 1.41063 -3.02429 -2.30817 0.656067 1.02337 -7.93809 -0.751385 
-22.0607 92.7703 14.6768 71.8884 -29.6358 -8.19845 -70.1915 0 88.8779 76.9443 72.8982 5.62668 4.43795 21.9821 3.55096 -123.592 33.203 157.15 176.281 76.6421 -147.256 0.687891 -14.4442 -17.7468 -59.2203 28.2735 -152.913 12.3385 -0.399488 -91.0663 0.420957 0.000575603 0.35866 -2.30856 7.1471 46.552 -120.988 -8.00756 88.7012 16.535 -4.12066 76.2615 0.58676 0.000330803 0.0646654 -48.2778 15.7981 96.7138 -2.63001 42.4056 -4.88048 -3.50647 -13.2848 -1.10567 2.58302 -7.30035 6.47233 -43.1293 -15.1458 77.1097 1.64499 35.6352 1.16671 -2.99244 -3.01526 0.688946 0.844377 -7.35673 0.366529 
-22.0319 92.7101 15.0688 71.8731 -29.1205 -7.80748 -70.1915 0 88.8779 75.7473 72.7633 6.38416 4.73373 21.6783 4.32934 -123.725 33.3248 156.86 176.285 76.8193 -147.284 0.659915 -14.6869 -17.9313 -59.5476 27.6937 -153.076 12.1404 -0.38852 -91.0421 0.420957 0.000575603 0.35866 -2.2551 7.16291 45.765 -121.213 -8.86282 88.0526 16.6443 -3.99476 76.7389 0.58676 0.000330803 0.0646654 -48.0872 16.0711 96.2901 -2.71502 42.4655 -5.58275 -3.6838 -12.7819 -1.04587 3.21991 -8.70068 7.5844 -43.1132 -15.0184 76.6488 1.68395 36.3011 1.28467 -3.36592 -3.34072 0.743472 0.988955 -7.71961 -0.658316 
-21.9626 92.6508 15.3526 71.7981 -29.1179 -7.82156 -70.1915 0 88.8779 76.4599 72.4328 5.89647 4.51752 21.4399 3.85181 -123.936 33.3257 157.33 175.393 76.6213 -146.586 0.71994 -14.1109 -17.6354 -58.9239 27.886 -153.216 11.6624 -0.436964 -91.3402 0.420957 0.000575603 0.35866 -2.36011 7.31251 46.5061 -121.021 -8.83667 88.6303 17.0432 -4.16122 76.5577 0.58676 0.000330803 0.0646654 -48.1428 16.1712 95.9436 -2.57728 42.3322 -4.51779 -3.26305 -12.3169 -1.00132 3.70804 -9.07934 4.97066 -42.9215 -14.6609 77.2318 1.63751 36.8223 0.951232 -3.25064 -3.90351 0.759595 1.06197 -7.80471 -1.31876 
-21.8473 92.5295 15.5013 71.8229 -29.0149 -7.73491 -70.1915 0 88.8779 72.9935 72.6289 8.31818 5.47663 21.2912 5.66576 -125.655 34.4619 159.322 170.185 76.6646 -142.198 0.614031 -14.7114 -19.004 -59.8918 27.361 -152.88 11.756 -0.405903 -91.1757 0.420957 0.000575603 0.35866 -2.26606 7.6195 44.0121 -121.597 -10.3795 87.5894 16.9817 -4.06475 76.8011 0.58676 0.000330803 0.0646654 -47.8137 16.1578 95.6177 -2.62111 43.0482 -4.29975 -2.9884 -13.2445 -1.10743 2.87774 -7.6964 5.81157 -42.7054 -14.4864 77.6446 1.58599 37.4518 0.2903 -3.50546 -4.18035 0.797171 1.01973 -8.08621 -0.526625 
-21.8094 92.2365 15.4999 71.8273 -29.1413 -7.25774 -70.1915 0 88.8779 75.8851 72.722 6.25949 4.62148 21.5947 4.55169 -123.358 33.0637 155.865 177.795 76.9509 -148.318 0.669495 -14.7656 -17.5347 -59.1135 27.699 -153.93 11.3067 -0.357864 -91.0138 0.420957 0.000575603 0.35866 -2.24549 7.0232 46.2543 -121.175 -8.88222 88.5128 16.2651 -3.98606 76.4732 0.58676 0.000330803 0.0646654 -47.0227 16.4078 94.6298 -2.89898 44.6281 -5.24259 -2.61492 -12.9067 -1.0765 3.81279 -10.059 9.30368 -42.2234 -13.8287 78.3534 1.65342 38.5322 0.226161 -3.36055 -4.19864 0.78447 1.26808 -9.12621 -2.01677 
-21.6611 91.8185 15.2689 72.0014 -29.7328 -7.1134 -70.1915 0 88.8779 77.94 72.6602 4.08345 3.92168 21.2153 5.42603 -124.277 33.8443 158.873 170.158 76.2367 -140.703 0.679072 -14.2858 -18.3478 -59.4749 27.6654 -153.157 11.7638 -0.440057 -91.3319 0.420957 0.000575603 0.35866 -2.35145 7.60402 45.1653 -120.627 -9.83437 88.6033 17.0292 -4.3986 75.8168 0.58676 0.000330803 0.0646654 -46.0253 15.9625 92.7168 -3.30303 47.3824 -5.79951 -2.09935 -12.678 -1.06143 4.51702 -11.743 12.8064 -41.2598 -13.5576 79.6022 1.58558 40.2507 -1.26089 -2.09432 -4.64685 0.692539 0.980354 -8.81996 0.933703 
-21.4775 91.1399 14.6869 72.51 -30.8374 -6.62652 -70.1915 0 88.8779 81.1733 72.8846 1.15748 3.43638 21.2716 5.86489 -125.202 33.8818 159.474 171.496 76.1481 -142.204 0.690185 -14.2781 -18.0649 -59.8333 28.2437 -153.088 11.928 -0.491712 -91.5424 0.420957 0.000575603 0.35866 -2.31475 7.72176 44.2289 -120.472 -10.9615 89.0079 18.0431 -4.99819 74.9014 0.58676 0.000330803 0.0646654 -44.719 15.3148 89.7764 -3.99078 51.7237 -6.00367 -2.03167 -13.9611 -1.19076 4.91894 -12.533 14.1318 -40.1341 -12.9411 81.6235 1.79869 42.6326 -1.12679 -1.33357 -4.90033 0.640962 0.976489 -8.50609 0.514572 
